<?xml version="1.0" encoding="UTF-8" standalone="no"?>
<svg
   xmlns:dc="http://purl.org/dc/elements/1.1/"
   xmlns:cc="http://creativecommons.org/ns#"
   xmlns:rdf="http://www.w3.org/1999/02/22-rdf-syntax-ns#"
   xmlns:svg="http://www.w3.org/2000/svg"
   xmlns="http://www.w3.org/2000/svg"
   xmlns:sodipodi="http://sodipodi.sourceforge.net/DTD/sodipodi-0.dtd"
   xmlns:inkscape="http://www.inkscape.org/namespaces/inkscape"
   version="1.1"
   id="Capa_1"
   x="0px"
   y="0px"
   viewBox="0 0 438.483 438.483"
   style="enable-background:new 0 0 438.483 438.483;"
   xml:space="preserve"
   sodipodi:docname="back.svg"
   inkscape:version="1.0.1 (3bc2e813f5, 2020-09-07)"><metadata
   id="metadata43"><rdf:RDF><cc:Work
       rdf:about=""><dc:format>image/svg+xml</dc:format><dc:type
         rdf:resource="http://purl.org/dc/dcmitype/StillImage" /></cc:Work></rdf:RDF></metadata><defs
   id="defs41" /><sodipodi:namedview
   pagecolor="#ffffff"
   bordercolor="#666666"
   borderopacity="1"
   objecttolerance="10"
   gridtolerance="10"
   guidetolerance="10"
   inkscape:pageopacity="0"
   inkscape:pageshadow="2"
   inkscape:window-width="2400"
   inkscape:window-height="1321"
   id="namedview39"
   showgrid="false"
   inkscape:zoom="2.5443277"
   inkscape:cx="219.2415"
   inkscape:cy="219.2415"
   inkscape:window-x="-9"
   inkscape:window-y="-9"
   inkscape:window-maximized="1"
   inkscape:current-layer="Capa_1" />
<g
   id="g6"
   style="fill:#ffffff;fill-opacity:1">
	<g
   id="g4"
   style="fill:#ffffff;fill-opacity:1">
		<path
   d="M431.168,230.762c-23.552-75.776-98.304-127.488-187.904-129.024V13.162c0-4.096-3.584-7.68-7.68-7.68    c-1.536,0-3.072,0.512-4.608,1.536L3.136,171.882c-3.584,2.56-4.096,7.168-1.536,10.752c0.512,0.512,1.024,1.024,1.536,1.536    l227.84,163.84c3.584,2.56,8.192,1.536,10.752-1.536c1.024-1.536,1.536-3.072,1.536-4.608v-88.064    c55.296,0,101.888,26.112,118.272,65.536c13.824,33.792,2.56,70.144-30.208,100.352c-3.072,3.072-3.584,7.68-0.512,10.752    c1.536,1.536,3.584,2.56,5.632,2.56h6.144c1.536,0,3.072-0.512,4.096-1.536C421.952,381.802,454.208,304.49,431.168,230.762z"
   id="path2"
   style="fill:#ffffff;fill-opacity:1" />
	</g>
</g>
<g
   id="g8">
</g>
<g
   id="g10">
</g>
<g
   id="g12">
</g>
<g
   id="g14">
</g>
<g
   id="g16">
</g>
<g
   id="g18">
</g>
<g
   id="g20">
</g>
<g
   id="g22">
</g>
<g
   id="g24">
</g>
<g
   id="g26">
</g>
<g
   id="g28">
</g>
<g
   id="g30">
</g>
<g
   id="g32">
</g>
<g
   id="g34">
</g>
<g
   id="g36">
</g>
</svg>
