<?xml version="1.0" encoding="UTF-8" standalone="no"?>
<svg
   xmlns:dc="http://purl.org/dc/elements/1.1/"
   xmlns:cc="http://creativecommons.org/ns#"
   xmlns:rdf="http://www.w3.org/1999/02/22-rdf-syntax-ns#"
   xmlns:svg="http://www.w3.org/2000/svg"
   xmlns="http://www.w3.org/2000/svg"
   xmlns:sodipodi="http://sodipodi.sourceforge.net/DTD/sodipodi-0.dtd"
   xmlns:inkscape="http://www.inkscape.org/namespaces/inkscape"
   version="1.1"
   id="Capa_1"
   x="0px"
   y="0px"
   width="416.979px"
   height="416.979px"
   viewBox="0 0 416.979 416.979"
   style="enable-background:new 0 0 416.979 416.979;"
   xml:space="preserve"
   sodipodi:docname="info.svg"
   inkscape:version="1.0.1 (3bc2e813f5, 2020-09-07)"><metadata
   id="metadata913"><rdf:RDF><cc:Work
       rdf:about=""><dc:format>image/svg+xml</dc:format><dc:type
         rdf:resource="http://purl.org/dc/dcmitype/StillImage" /></cc:Work></rdf:RDF></metadata><defs
   id="defs911" /><sodipodi:namedview
   pagecolor="#ffffff"
   bordercolor="#666666"
   borderopacity="1"
   objecttolerance="10"
   gridtolerance="10"
   guidetolerance="10"
   inkscape:pageopacity="0"
   inkscape:pageshadow="2"
   inkscape:window-width="2400"
   inkscape:window-height="1321"
   id="namedview909"
   showgrid="false"
   inkscape:zoom="2.6732266"
   inkscape:cx="208.4895"
   inkscape:cy="208.4895"
   inkscape:window-x="-9"
   inkscape:window-y="-9"
   inkscape:window-maximized="1"
   inkscape:current-layer="Capa_1" />
<g
   id="g876"
   style="fill:#ffffff;fill-opacity:1">
	<path
   d="M356.004,61.156c-81.37-81.47-213.377-81.551-294.848-0.182c-81.47,81.371-81.552,213.379-0.181,294.85   c81.369,81.47,213.378,81.551,294.849,0.181C437.293,274.636,437.375,142.626,356.004,61.156z M237.6,340.786   c0,3.217-2.607,5.822-5.822,5.822h-46.576c-3.215,0-5.822-2.605-5.822-5.822V167.885c0-3.217,2.607-5.822,5.822-5.822h46.576   c3.215,0,5.822,2.604,5.822,5.822V340.786z M208.49,137.901c-18.618,0-33.766-15.146-33.766-33.765   c0-18.617,15.147-33.766,33.766-33.766c18.619,0,33.766,15.148,33.766,33.766C242.256,122.755,227.107,137.901,208.49,137.901z"
   id="path874"
   style="fill:#ffffff;fill-opacity:1" />
</g>
<g
   id="g878">
</g>
<g
   id="g880">
</g>
<g
   id="g882">
</g>
<g
   id="g884">
</g>
<g
   id="g886">
</g>
<g
   id="g888">
</g>
<g
   id="g890">
</g>
<g
   id="g892">
</g>
<g
   id="g894">
</g>
<g
   id="g896">
</g>
<g
   id="g898">
</g>
<g
   id="g900">
</g>
<g
   id="g902">
</g>
<g
   id="g904">
</g>
<g
   id="g906">
</g>
</svg>
