<?xml version="1.0" encoding="UTF-8" standalone="no"?>
<svg
   xmlns:dc="http://purl.org/dc/elements/1.1/"
   xmlns:cc="http://creativecommons.org/ns#"
   xmlns:rdf="http://www.w3.org/1999/02/22-rdf-syntax-ns#"
   xmlns:svg="http://www.w3.org/2000/svg"
   xmlns="http://www.w3.org/2000/svg"
   xmlns:sodipodi="http://sodipodi.sourceforge.net/DTD/sodipodi-0.dtd"
   xmlns:inkscape="http://www.inkscape.org/namespaces/inkscape"
   width="210mm"
   height="297mm"
   viewBox="0 0 210 297"
   version="1.1"
   id="svg8"
   inkscape:version="1.0.1 (3bc2e813f5, 2020-09-07)"
   sodipodi:docname="menu_arrows.svg">
  <defs
     id="defs2" />
  <sodipodi:namedview
     id="base"
     pagecolor="#ffffff"
     bordercolor="#666666"
     borderopacity="1.0"
     inkscape:pageopacity="0.0"
     inkscape:pageshadow="2"
     inkscape:zoom="0.44372222"
     inkscape:cx="400"
     inkscape:cy="379.70702"
     inkscape:document-units="mm"
     inkscape:current-layer="layer1"
     inkscape:document-rotation="0"
     showgrid="false"
     inkscape:window-width="2400"
     inkscape:window-height="1321"
     inkscape:window-x="-9"
     inkscape:window-y="-9"
     inkscape:window-maximized="1" />
  <metadata
     id="metadata5">
    <rdf:RDF>
      <cc:Work
         rdf:about="">
        <dc:format>image/svg+xml</dc:format>
        <dc:type
           rdf:resource="http://purl.org/dc/dcmitype/StillImage" />
        <dc:title></dc:title>
      </cc:Work>
    </rdf:RDF>
  </metadata>
  <g
     inkscape:label="Layer 1"
     inkscape:groupmode="layer"
     id="layer1">
    <g
       id="g947"
       transform="matrix(0,0.26458333,-0.26458333,0,170.47054,63.271635)"
       style="fill:#ffffff;fill-opacity:1">
      <g
         id="g884"
         style="fill:#ffffff;fill-opacity:1">
	<path
   style="fill:#ffffff;fill-opacity:1"
   d="m 231.696,3.128 c -4.237,-4.093 -10.99,-3.975 -15.083,0.262 -3.992,4.134 -3.992,10.687 0,14.82 L 443.728,245.346 216.592,472.461 c -4.237,4.093 -4.355,10.845 -0.262,15.083 4.093,4.237 10.845,4.354 15.083,0.262 0.089,-0.086 0.176,-0.173 0.262,-0.262 L 466.342,252.877 c 4.164,-4.165 4.164,-10.917 0,-15.083 z"
   id="path880" />

	<path
   style="fill:#ffffff;fill-opacity:1"
   d="M 274.363,237.795 39.696,3.128 c -4.237,-4.093 -10.99,-3.975 -15.083,0.262 -3.992,4.134 -3.992,10.687 0,14.821 L 251.728,245.347 24.592,472.461 c -4.237,4.093 -4.354,10.845 -0.262,15.083 4.093,4.237 10.845,4.354 15.083,0.262 0.089,-0.086 0.176,-0.173 0.262,-0.262 L 274.342,252.877 c 4.169,-4.159 4.179,-10.911 0.021,-15.082 z"
   id="path882" />

</g>
      <path
         d="m 224.144,490.68 c -5.891,0.011 -10.675,-4.757 -10.686,-10.648 -0.005,-2.84 1.123,-5.565 3.134,-7.571 L 443.728,245.346 216.592,18.232 c -4.093,-4.237 -3.975,-10.99 0.262,-15.083 4.134,-3.992 10.687,-3.992 14.82,0 l 234.667,234.667 c 4.164,4.165 4.164,10.917 0,15.083 L 231.675,487.565 c -1.999,1.995 -4.707,3.115 -7.531,3.115 z"
         id="path886"
         style="fill:#ffffff;fill-opacity:1" />
      <path
         d="m 32.144,490.68 c -5.891,0.011 -10.675,-4.757 -10.686,-10.648 -0.005,-2.84 1.123,-5.565 3.134,-7.571 L 251.728,245.346 24.592,18.232 c -4.171,-4.171 -4.171,-10.933 0,-15.104 4.171,-4.171 10.933,-4.171 15.104,0 l 234.667,234.667 c 4.164,4.165 4.164,10.917 0,15.083 L 39.696,487.544 c -2.001,2.007 -4.718,3.136 -7.552,3.136 z"
         id="path888"
         style="fill:#ffffff;fill-opacity:1" />
      <g
         id="g890"
         style="fill:#ffffff;fill-opacity:1">
</g>
      <g
         id="g892"
         style="fill:#ffffff;fill-opacity:1">
</g>
      <g
         id="g894"
         style="fill:#ffffff;fill-opacity:1">
</g>
      <g
         id="g896"
         style="fill:#ffffff;fill-opacity:1">
</g>
      <g
         id="g898"
         style="fill:#ffffff;fill-opacity:1">
</g>
      <g
         id="g900"
         style="fill:#ffffff;fill-opacity:1">
</g>
      <g
         id="g902"
         style="fill:#ffffff;fill-opacity:1">
</g>
      <g
         id="g904"
         style="fill:#ffffff;fill-opacity:1">
</g>
      <g
         id="g906"
         style="fill:#ffffff;fill-opacity:1">
</g>
      <g
         id="g908"
         style="fill:#ffffff;fill-opacity:1">
</g>
      <g
         id="g910"
         style="fill:#ffffff;fill-opacity:1">
</g>
      <g
         id="g912"
         style="fill:#ffffff;fill-opacity:1">
</g>
      <g
         id="g914"
         style="fill:#ffffff;fill-opacity:1">
</g>
      <g
         id="g916"
         style="fill:#ffffff;fill-opacity:1">
</g>
      <g
         id="g918"
         style="fill:#ffffff;fill-opacity:1">
</g>
    </g>
  </g>
</svg>
